<svg width="684.65px" height="107.36000366210938px" xmlns="http://www.w3.org/2000/svg" viewBox="-92.32499999999999 21.31999816894531 684.65 107.36000366210938" style="background: none;" preserveAspectRatio="xMidYMid"><defs><filter id="editing-hover" x="-100%" y="-100%" width="300%" height="300%"><feFlood flood-color="#052b4a" result="flood"></feFlood><feComposite operator="in" in2="SourceAlpha" in="flood" result="shadow"></feComposite><feOffset dx="-0.6" dy="-2.6" in="SourceGraphic" result="offset-1"></feOffset><feOffset dx="0.6" dy="2.6" in="shadow" result="offset-2"></feOffset><feMerge><feMergeNode in="offset-2"></feMergeNode><feMergeNode in="offset-1"></feMergeNode></feMerge></filter></defs><g filter="url(#editing-hover)"><g transform="translate(4.210023403167725, 101.40000534057617)"><path d="M28.48 5.76L28.48 5.76L18.62 5.76L18.62 5.76Q17.41 5.76 16.86 5.22L16.86 5.22L16.86 5.22Q16.32 4.67 16.32 3.46L16.32 3.46L16.32-0.06L16.32-0.06Q8.90-1.15 6.30-4.51L6.30-4.51L6.30-4.51Q3.71-7.87 3.71-12.67L3.71-12.67L3.71-33.92L3.71-33.92Q3.71-36.86 4.58-39.26L4.58-39.26L4.58-39.26Q5.44-41.66 7.65-43.39L7.65-43.39L7.65-43.39Q9.86-45.12 13.76-46.08L13.76-46.08L13.76-46.08Q17.66-47.04 23.62-47.04L23.62-47.04L23.62-47.04Q29.57-47.04 33.44-46.08L33.44-46.08L33.44-46.08Q37.31-45.12 39.52-43.39L39.52-43.39L39.52-43.39Q41.73-41.66 42.59-39.26L42.59-39.26L42.59-39.26Q43.46-36.86 43.46-33.92L43.46-33.92L43.46-12.67L43.46-12.67Q43.46-10.24 42.88-8.16L42.88-8.16L42.88-8.16Q42.30-6.08 40.90-4.48L40.90-4.48L40.90-4.48Q39.49-2.88 37.02-1.73L37.02-1.73L37.02-1.73Q34.56-0.58 30.78-0.06L30.78-0.06L30.78 3.46L30.78 3.46Q30.78 4.67 30.24 5.22L30.24 5.22L30.24 5.22Q29.70 5.76 28.48 5.76ZM23.17-4.93L23.17 0L23.81 0L23.81-4.93L23.81-4.93Q31.10-4.99 33.79-7.36L33.79-7.36L33.79-7.36Q36.48-9.73 36.48-13.57L36.48-13.57L36.48-32.45L36.48-32.45Q36.48-36.29 33.73-38.69L33.73-38.69L33.73-38.69Q30.98-41.09 23.49-41.09L23.49-41.09L23.49-41.09Q16-41.09 13.31-38.69L13.31-38.69L13.31-38.69Q10.62-36.29 10.62-32.45L10.62-32.45L10.62-13.57L10.62-13.57Q10.62-9.73 13.25-7.36L13.25-7.36L13.25-7.36Q15.87-4.99 23.17-4.93L23.17-4.93ZM11.26-13.57L11.26-13.57L11.26-32.45L11.26-32.45Q11.26-36.03 13.82-38.24L13.82-38.24L13.82-38.24Q16.38-40.45 23.49-40.45L23.49-40.45L23.49-40.45Q30.59-40.45 33.22-38.24L33.22-38.24L33.22-38.24Q35.84-36.03 35.84-32.45L35.84-32.45L35.84-13.57L35.84-13.57Q35.84-9.98 33.22-7.78L33.22-7.78L33.22-7.78Q30.59-5.57 23.49-5.57L23.49-5.57L23.49-5.57Q16.38-5.57 13.82-7.78L13.82-7.78L13.82-7.78Q11.26-9.98 11.26-13.57ZM18.24-31.55L18.24-14.08L18.24-14.08Q18.24-12.80 19.20-11.94L19.20-11.94L19.20-11.94Q20.16-11.07 23.62-11.07L23.62-11.07L23.62-11.07Q27.07-11.07 28.03-11.94L28.03-11.94L28.03-11.94Q28.99-12.80 28.99-14.08L28.99-14.08L28.99-31.55L28.99-31.55Q28.99-32.77 28.03-33.63L28.03-33.63L28.03-33.63Q27.07-34.50 23.62-34.50L23.62-34.50L23.62-34.50Q20.16-34.50 19.20-33.63L19.20-33.63L19.20-33.63Q18.24-32.77 18.24-31.55L18.24-31.55ZM90.82-43.78L90.82-12.10L90.82-12.10Q90.82-9.15 89.95-6.75L89.95-6.75L89.95-6.75Q89.09-4.35 86.88-2.66L86.88-2.66L86.88-2.66Q84.67-0.96 80.83 0L80.83 0L80.83 0Q76.99 0.96 71.04 0.96L71.04 0.96L71.04 0.96Q65.09 0.96 61.25 0L61.25 0L61.25 0Q57.41-0.96 55.20-2.66L55.20-2.66L55.20-2.66Q52.99-4.35 52.13-6.75L52.13-6.75L52.13-6.75Q51.26-9.15 51.26-12.10L51.26-12.10L51.26-43.78L51.26-43.78Q51.26-44.99 51.81-45.54L51.81-45.54L51.81-45.54Q52.35-46.08 53.57-46.08L53.57-46.08L63.62-46.08L63.62-46.08Q64.83-46.08 65.38-45.54L65.38-45.54L65.38-45.54Q65.92-44.99 65.92-43.78L65.92-43.78L65.92-14.59L65.92-14.59Q65.92-13.31 66.88-12.45L66.88-12.45L66.88-12.45Q67.84-11.58 71.17-11.58L71.17-11.58L71.17-11.58Q74.56-11.58 75.52-12.45L75.52-12.45L75.52-12.45Q76.48-13.31 76.48-14.59L76.48-14.59L76.48-43.78L76.48-43.78Q76.48-44.99 77.02-45.54L77.02-45.54L77.02-45.54Q77.57-46.08 78.78-46.08L78.78-46.08L88.51-46.08L88.51-46.08Q89.73-46.08 90.27-45.54L90.27-45.54L90.27-45.54Q90.82-44.99 90.82-43.78L90.82-43.78ZM58.94-40.32L58.30-40.32L58.30-13.63L58.30-13.63Q58.30-9.79 60.96-7.39L60.96-7.39L60.96-7.39Q63.62-4.99 71.10-4.99L71.10-4.99L71.10-4.99Q78.59-4.99 81.28-7.39L81.28-7.39L81.28-7.39Q83.97-9.79 83.97-13.63L83.97-13.63L83.97-40.32L83.33-40.32L83.33-13.63L83.33-13.63Q83.33-10.05 80.77-7.84L80.77-7.84L80.77-7.84Q78.21-5.63 71.10-5.63L71.10-5.63L71.10-5.63Q64-5.63 61.47-7.84L61.47-7.84L61.47-7.84Q58.94-10.05 58.94-13.63L58.94-13.63L58.94-40.32ZM138.37-33.92L138.37-12.10L138.37-12.10Q138.37-9.15 137.50-6.75L137.50-6.75L137.50-6.75Q136.64-4.35 134.43-2.66L134.43-2.66L134.43-2.66Q132.22-0.96 128.35 0L128.35 0L128.35 0Q124.48 0.96 118.53 0.96L118.53 0.96L118.53 0.96Q112.58 0.96 108.67 0L108.67 0L108.67 0Q104.77-0.96 102.56-2.66L102.56-2.66L102.56-2.66Q100.35-4.35 99.49-6.75L99.49-6.75L99.49-6.75Q98.62-9.15 98.62-12.10L98.62-12.10L98.62-33.92L98.62-33.92Q98.62-36.86 99.49-39.26L99.49-39.26L99.49-39.26Q100.35-41.66 102.56-43.39L102.56-43.39L102.56-43.39Q104.77-45.12 108.67-46.08L108.67-46.08L108.67-46.08Q112.58-47.04 118.53-47.04L118.53-47.04L118.53-47.04Q124.48-47.04 128.35-46.08L128.35-46.08L128.35-46.08Q132.22-45.12 134.43-43.39L134.43-43.39L134.43-43.39Q136.64-41.66 137.50-39.26L137.50-39.26L137.50-39.26Q138.37-36.86 138.37-33.92L138.37-33.92ZM131.39-13.57L131.39-13.57L131.39-32.45L131.39-32.45Q131.39-36.29 128.64-38.69L128.64-38.69L128.64-38.69Q125.89-41.09 118.40-41.09L118.40-41.09L118.40-41.09Q110.91-41.09 108.22-38.69L108.22-38.69L108.22-38.69Q105.54-36.29 105.54-32.45L105.54-32.45L105.54-13.57L105.54-13.57Q105.54-9.73 108.22-7.33L108.22-7.33L108.22-7.33Q110.91-4.93 118.40-4.93L118.40-4.93L118.40-4.93Q125.89-4.93 128.64-7.33L128.64-7.33L128.64-7.33Q131.39-9.73 131.39-13.57ZM106.18-13.57L106.18-13.57L106.18-32.45L106.18-32.45Q106.18-36.03 108.74-38.24L108.74-38.24L108.74-38.24Q111.30-40.45 118.40-40.45L118.40-40.45L118.40-40.45Q125.50-40.45 128.13-38.24L128.13-38.24L128.13-38.24Q130.75-36.03 130.75-32.45L130.75-32.45L130.75-13.57L130.75-13.57Q130.75-9.98 128.13-7.78L128.13-7.78L128.13-7.78Q125.50-5.57 118.40-5.57L118.40-5.57L118.40-5.57Q111.30-5.57 108.74-7.78L108.74-7.78L108.74-7.78Q106.18-9.98 106.18-13.57ZM113.15-31.62L113.15-14.40L113.15-14.40Q113.15-13.12 114.11-12.26L114.11-12.26L114.11-12.26Q115.07-11.39 118.53-11.39L118.53-11.39L118.53-11.39Q121.98-11.39 122.94-12.26L122.94-12.26L122.94-12.26Q123.90-13.12 123.90-14.40L123.90-14.40L123.90-31.62L123.90-31.62Q123.90-32.83 122.94-33.70L122.94-33.70L122.94-33.70Q121.98-34.56 118.53-34.56L118.53-34.56L118.53-34.56Q115.07-34.56 114.11-33.70L114.11-33.70L114.11-33.70Q113.15-32.83 113.15-31.62L113.15-31.62ZM168.26 0L168.26 0L157.89 0L157.89 0Q156.67 0 156.13-0.54L156.13-0.54L156.13-0.54Q155.58-1.09 155.58-2.30L155.58-2.30L155.58-33.73L146.18-33.73L146.18-33.73Q144.96-33.73 144.42-34.27L144.42-34.27L144.42-34.27Q143.87-34.82 143.87-36.03L143.87-36.03L143.87-43.78L143.87-43.78Q143.87-44.99 144.42-45.54L144.42-45.54L144.42-45.54Q144.96-46.08 146.18-46.08L146.18-46.08L179.97-46.08L179.97-46.08Q181.18-46.08 181.73-45.54L181.73-45.54L181.73-45.54Q182.27-44.99 182.27-43.78L182.27-43.78L182.27-36.03L182.27-36.03Q182.27-34.82 181.73-34.27L181.73-34.27L181.73-34.27Q181.18-33.73 179.97-33.73L179.97-33.73L170.56-33.73L170.56-2.30L170.56-2.30Q170.56-1.09 170.02-0.54L170.02-0.54L170.02-0.54Q169.47 0 168.26 0ZM162.75-39.68L162.75-5.76L163.39-5.76L163.39-39.68L176.51-39.68L176.51-40.32L149.63-40.32L149.63-39.68L162.75-39.68ZM217.02 0L189.76 0L189.76 0Q188.54 0 188.00-0.54L188.00-0.54L188.00-0.54Q187.46-1.09 187.46-2.30L187.46-2.30L187.46-9.92L187.46-9.92Q187.46-11.14 188.00-11.68L188.00-11.68L188.00-11.68Q188.54-12.22 189.76-12.22L189.76-12.22L196.10-12.22L196.10-33.73L189.76-33.73L189.76-33.73Q188.54-33.73 188.00-34.27L188.00-34.27L188.00-34.27Q187.46-34.82 187.46-36.03L187.46-36.03L187.46-43.78L187.46-43.78Q187.46-44.99 188.00-45.54L188.00-45.54L188.00-45.54Q188.54-46.08 189.76-46.08L189.76-46.08L217.02-46.08L217.02-46.08Q218.24-46.08 218.78-45.54L218.78-45.54L218.78-45.54Q219.33-44.99 219.33-43.78L219.33-43.78L219.33-36.03L219.33-36.03Q219.33-34.82 218.78-34.27L218.78-34.27L218.78-34.27Q218.24-33.73 217.02-33.73L217.02-33.73L210.82-33.73L210.82-12.22L217.02-12.22L217.02-12.22Q218.24-12.22 218.78-11.68L218.78-11.68L218.78-11.68Q219.33-11.14 219.33-9.92L219.33-9.92L219.33-2.30L219.33-2.30Q219.33-1.09 218.78-0.54L218.78-0.54L218.78-0.54Q218.24 0 217.02 0L217.02 0ZM193.22-5.76L213.57-5.76L213.57-6.40L203.78-6.40L203.78-39.68L213.57-39.68L213.57-40.32L193.22-40.32L193.22-39.68L203.14-39.68L203.14-6.40L193.22-6.40L193.22-5.76ZM254.46 0L254.46 0L237.82 0L237.82 0Q236.61 0 235.81-0.45L235.81-0.45L235.81-0.45Q235.01-0.90 234.56-2.11L234.56-2.11L228.29-17.79L228.29-17.79Q227.71-19.20 227.33-20.26L227.33-20.26L227.33-20.26Q226.94-21.31 226.69-22.27L226.69-22.27L226.69-22.27Q226.43-23.23 226.34-24.29L226.34-24.29L226.34-24.29Q226.24-25.34 226.24-26.88L226.24-26.88L226.24-43.78L226.24-43.78Q226.24-44.99 226.78-45.54L226.78-45.54L226.78-45.54Q227.33-46.08 228.54-46.08L228.54-46.08L238.72-46.08L238.72-46.08Q239.94-46.08 240.58-45.54L240.58-45.54L240.58-45.54Q241.22-44.99 241.22-43.78L241.22-43.78L241.22-26.11L241.22-26.11Q241.22-25.47 241.34-24.83L241.34-24.83L241.34-24.83Q241.47-24.19 241.73-23.49L241.73-23.49L244.74-14.53L244.74-14.53Q244.93-13.89 245.18-13.66L245.18-13.66L245.18-13.66Q245.44-13.44 245.95-13.44L245.95-13.44L246.66-13.44L246.66-13.44Q247.17-13.44 247.42-13.66L247.42-13.66L247.42-13.66Q247.68-13.89 247.87-14.53L247.87-14.53L250.88-23.55L250.88-23.55Q251.14-24.26 251.26-24.90L251.26-24.90L251.26-24.90Q251.39-25.54 251.39-26.18L251.39-26.18L251.39-43.78L251.39-43.78Q251.39-44.99 251.94-45.54L251.94-45.54L251.94-45.54Q252.48-46.08 253.70-46.08L253.70-46.08L263.74-46.08L263.74-46.08Q264.96-46.08 265.50-45.54L265.50-45.54L265.50-45.54Q266.05-44.99 266.05-43.78L266.05-43.78L266.05-26.88L266.05-26.88Q266.05-25.34 265.95-24.29L265.95-24.29L265.95-24.29Q265.86-23.23 265.60-22.27L265.60-22.27L265.60-22.27Q265.34-21.31 264.96-20.26L264.96-20.26L264.96-20.26Q264.58-19.20 264-17.79L264-17.79L257.73-2.11L257.73-2.11Q257.28-0.90 256.48-0.45L256.48-0.45L256.48-0.45Q255.68 0 254.46 0ZM234.11-40.32L233.47-40.32L233.47-26.50L233.47-26.50Q233.47-24.70 233.70-23.20L233.70-23.20L233.70-23.20Q233.92-21.70 234.50-20.29L234.50-20.29L238.72-10.05L238.72-10.05Q239.49-8.19 240.45-6.98L240.45-6.98L240.45-6.98Q241.41-5.76 243.39-5.76L243.39-5.76L249.02-5.76L249.02-5.76Q251.01-5.76 251.97-6.98L251.97-6.98L251.97-6.98Q252.93-8.19 253.70-10.05L253.70-10.05L257.92-20.29L257.92-20.29Q258.50-21.70 258.72-23.20L258.72-23.20L258.72-23.20Q258.94-24.70 258.94-26.50L258.94-26.50L258.94-40.32L258.30-40.32L258.30-26.50L258.30-26.50Q258.30-24.83 258.05-23.33L258.05-23.33L258.05-23.33Q257.79-21.82 257.28-20.54L257.28-20.54L253.06-10.30L253.06-10.30Q252.42-8.64 251.62-7.52L251.62-7.52L251.62-7.52Q250.82-6.40 249.02-6.40L249.02-6.40L243.39-6.40L243.39-6.40Q241.60-6.40 240.80-7.52L240.80-7.52L240.80-7.52Q240.00-8.64 239.36-10.30L239.36-10.30L235.14-20.54L235.14-20.54Q234.62-21.82 234.37-23.33L234.37-23.33L234.37-23.33Q234.11-24.83 234.11-26.50L234.11-26.50L234.11-40.32ZM280.38-17.41L280.38-19.39L280.38-19.39Q280.38-21.12 280.67-22.59L280.67-22.59L280.67-22.59Q280.96-24.06 281.41-25.34L281.41-25.34L285.50-35.84L285.50-35.84Q286.14-37.44 286.91-38.56L286.91-38.56L286.91-38.56Q287.68-39.68 289.60-39.68L289.60-39.68L295.87-39.68L295.87-39.68Q297.66-39.68 298.43-38.56L298.43-38.56L298.43-38.56Q299.20-37.44 299.90-35.78L299.90-35.78L304.32-25.34L304.32-25.34Q304.77-24.06 305.06-22.59L305.06-22.59L305.06-22.59Q305.34-21.12 305.34-19.39L305.34-19.39L305.34-17.41L280.38-17.41ZM290.62-32.64L290.62-32.64L287.62-22.91L297.66-22.91L294.66-32.64L294.66-32.64Q294.40-33.22 294.11-33.47L294.11-33.47L294.11-33.47Q293.82-33.73 293.44-33.73L293.44-33.73L291.84-33.73L291.84-33.73Q291.46-33.73 291.17-33.47L291.17-33.47L291.17-33.47Q290.88-33.22 290.62-32.64ZM305.34-16.77L305.34-5.76L305.98-5.76L305.98-19.39L305.98-19.39Q305.98-21.18 305.70-22.69L305.70-22.69L305.70-22.69Q305.41-24.19 304.90-25.60L304.90-25.60L300.48-36.03L300.48-36.03Q299.71-37.89 298.85-39.10L298.85-39.10L298.85-39.10Q297.98-40.32 295.87-40.32L295.87-40.32L289.60-40.32L289.60-40.32Q287.42-40.32 286.53-39.10L286.53-39.10L286.53-39.10Q285.63-37.89 284.93-36.10L284.93-36.10L280.83-25.60L280.83-25.60Q280.32-24.19 280.03-22.69L280.03-22.69L280.03-22.69Q279.74-21.18 279.74-19.39L279.74-19.39L279.74-5.76L280.38-5.76L280.38-16.77L305.34-16.77ZM286.98-11.26L286.98-2.30L286.98-2.30Q286.98-1.09 286.43-0.54L286.43-0.54L286.43-0.54Q285.89 0 284.67 0L284.67 0L275.26 0L275.26 0Q274.05 0 273.50-0.54L273.50-0.54L273.50-0.54Q272.96-1.09 272.96-2.30L272.96-2.30L272.96-19.20L272.96-19.20Q272.96-21.12 273.57-23.62L273.57-23.62L273.57-23.62Q274.18-26.11 275.46-29.44L275.46-29.44L281.02-43.97L281.02-43.97Q281.41-45.06 282.21-45.57L282.21-45.57L282.21-45.57Q283.01-46.08 284.29-46.08L284.29-46.08L301.50-46.08L301.50-46.08Q302.72-46.08 303.52-45.57L303.52-45.57L303.52-45.57Q304.32-45.06 304.70-43.97L304.70-43.97L310.27-29.44L310.27-29.44Q311.55-26.11 312.16-23.62L312.16-23.62L312.16-23.62Q312.77-21.12 312.77-19.20L312.77-19.20L312.77-2.30L312.77-2.30Q312.77-1.09 312.22-0.54L312.22-0.54L312.22-0.54Q311.68 0 310.46 0L310.46 0L300.80 0L300.80 0Q299.52 0 298.91-0.54L298.91-0.54L298.91-0.54Q298.30-1.09 298.30-2.30L298.30-2.30L298.30-11.26L286.98-11.26ZM342.40 0L342.40 0L332.03 0L332.03 0Q330.82 0 330.27-0.54L330.27-0.54L330.27-0.54Q329.73-1.09 329.73-2.30L329.73-2.30L329.73-33.73L320.32-33.73L320.32-33.73Q319.10-33.73 318.56-34.27L318.56-34.27L318.56-34.27Q318.02-34.82 318.02-36.03L318.02-36.03L318.02-43.78L318.02-43.78Q318.02-44.99 318.56-45.54L318.56-45.54L318.56-45.54Q319.10-46.08 320.32-46.08L320.32-46.08L354.11-46.08L354.11-46.08Q355.33-46.08 355.87-45.54L355.87-45.54L355.87-45.54Q356.42-44.99 356.42-43.78L356.42-43.78L356.42-36.03L356.42-36.03Q356.42-34.82 355.87-34.27L355.87-34.27L355.87-34.27Q355.33-33.73 354.11-33.73L354.11-33.73L344.70-33.73L344.70-2.30L344.70-2.30Q344.70-1.09 344.16-0.54L344.16-0.54L344.16-0.54Q343.62 0 342.40 0ZM336.90-39.68L336.90-5.76L337.54-5.76L337.54-39.68L350.66-39.68L350.66-40.32L323.78-40.32L323.78-39.68L336.90-39.68ZM391.17 0L363.90 0L363.90 0Q362.69 0 362.14-0.54L362.14-0.54L362.14-0.54Q361.60-1.09 361.60-2.30L361.60-2.30L361.60-9.92L361.60-9.92Q361.60-11.14 362.14-11.68L362.14-11.68L362.14-11.68Q362.69-12.22 363.90-12.22L363.90-12.22L370.24-12.22L370.24-33.73L363.90-33.73L363.90-33.73Q362.69-33.73 362.14-34.27L362.14-34.27L362.14-34.27Q361.60-34.82 361.60-36.03L361.60-36.03L361.60-43.78L361.60-43.78Q361.60-44.99 362.14-45.54L362.14-45.54L362.14-45.54Q362.69-46.08 363.90-46.08L363.90-46.08L391.17-46.08L391.17-46.08Q392.38-46.08 392.93-45.54L392.93-45.54L392.93-45.54Q393.47-44.99 393.47-43.78L393.47-43.78L393.47-36.03L393.47-36.03Q393.47-34.82 392.93-34.27L392.93-34.27L392.93-34.27Q392.38-33.73 391.17-33.73L391.17-33.73L384.96-33.73L384.96-12.22L391.17-12.22L391.17-12.22Q392.38-12.22 392.93-11.68L392.93-11.68L392.93-11.68Q393.47-11.14 393.47-9.92L393.47-9.92L393.47-2.30L393.47-2.30Q393.47-1.09 392.93-0.54L392.93-0.54L392.93-0.54Q392.38 0 391.17 0L391.17 0ZM367.36-5.76L387.71-5.76L387.71-6.40L377.92-6.40L377.92-39.68L387.71-39.68L387.71-40.32L367.36-40.32L367.36-39.68L377.28-39.68L377.28-6.40L367.36-6.40L367.36-5.76ZM440.38-33.92L440.38-12.10L440.38-12.10Q440.38-9.15 439.52-6.75L439.52-6.75L439.52-6.75Q438.66-4.35 436.45-2.66L436.45-2.66L436.45-2.66Q434.24-0.96 430.37 0L430.37 0L430.37 0Q426.50 0.96 420.54 0.96L420.54 0.96L420.54 0.96Q414.59 0.96 410.69 0L410.69 0L410.69 0Q406.78-0.96 404.58-2.66L404.58-2.66L404.58-2.66Q402.37-4.35 401.50-6.75L401.50-6.75L401.50-6.75Q400.64-9.15 400.64-12.10L400.64-12.10L400.64-33.92L400.64-33.92Q400.64-36.86 401.50-39.26L401.50-39.26L401.50-39.26Q402.37-41.66 404.58-43.39L404.58-43.39L404.58-43.39Q406.78-45.12 410.69-46.08L410.69-46.08L410.69-46.08Q414.59-47.04 420.54-47.04L420.54-47.04L420.54-47.04Q426.50-47.04 430.37-46.08L430.37-46.08L430.37-46.08Q434.24-45.12 436.45-43.39L436.45-43.39L436.45-43.39Q438.66-41.66 439.52-39.26L439.52-39.26L439.52-39.26Q440.38-36.86 440.38-33.92L440.38-33.92ZM433.41-13.57L433.41-13.57L433.41-32.45L433.41-32.45Q433.41-36.29 430.66-38.69L430.66-38.69L430.66-38.69Q427.90-41.09 420.42-41.09L420.42-41.09L420.42-41.09Q412.93-41.09 410.24-38.69L410.24-38.69L410.24-38.69Q407.55-36.29 407.55-32.45L407.55-32.45L407.55-13.57L407.55-13.57Q407.55-9.73 410.24-7.33L410.24-7.33L410.24-7.33Q412.93-4.93 420.42-4.93L420.42-4.93L420.42-4.93Q427.90-4.93 430.66-7.33L430.66-7.33L430.66-7.33Q433.41-9.73 433.41-13.57ZM408.19-13.57L408.19-13.57L408.19-32.45L408.19-32.45Q408.19-36.03 410.75-38.24L410.75-38.24L410.75-38.24Q413.31-40.45 420.42-40.45L420.42-40.45L420.42-40.45Q427.52-40.45 430.14-38.24L430.14-38.24L430.14-38.24Q432.77-36.03 432.77-32.45L432.77-32.45L432.77-13.57L432.77-13.57Q432.77-9.98 430.14-7.78L430.14-7.78L430.14-7.78Q427.52-5.57 420.42-5.57L420.42-5.57L420.42-5.57Q413.31-5.57 410.75-7.78L410.75-7.78L410.75-7.78Q408.19-9.98 408.19-13.57ZM415.17-31.62L415.17-14.40L415.17-14.40Q415.17-13.12 416.13-12.26L416.13-12.26L416.13-12.26Q417.09-11.39 420.54-11.39L420.54-11.39L420.54-11.39Q424-11.39 424.96-12.26L424.96-12.26L424.96-12.26Q425.92-13.12 425.92-14.40L425.92-14.40L425.92-31.62L425.92-31.62Q425.92-32.83 424.96-33.70L424.96-33.70L424.96-33.70Q424-34.56 420.54-34.56L420.54-34.56L420.54-34.56Q417.09-34.56 416.13-33.70L416.13-33.70L416.13-33.70Q415.17-32.83 415.17-31.62L415.17-31.62ZM480.51-13.31L456.96-39.81L456.96-39.81Q456.64-40.13 456.45-40.26L456.45-40.26L456.45-40.26Q456.26-40.38 456-40.38L456-40.38L456-40.38Q455.74-40.38 455.49-40.19L455.49-40.19L455.49-40.19Q455.23-40 455.23-39.62L455.23-39.62L455.23-5.76L455.87-5.76L455.87-39.49L455.87-39.49Q455.87-39.55 455.90-39.62L455.90-39.62L455.90-39.62Q455.94-39.68 456-39.68L456-39.68L456-39.68Q456.06-39.68 456.16-39.62L456.16-39.62L456.16-39.62Q456.26-39.55 456.32-39.49L456.32-39.49L480.51-12.35L480.51-5.76L481.15-5.76L481.15-40.32L480.51-40.32L480.51-13.31ZM460.42 0L460.42 0L450.82 0L450.82 0Q449.60 0 449.06-0.54L449.06-0.54L449.06-0.54Q448.51-1.09 448.51-2.30L448.51-2.30L448.51-43.78L448.51-43.78Q448.51-44.99 449.06-45.54L449.06-45.54L449.06-45.54Q449.60-46.08 450.82-46.08L450.82-46.08L457.47-46.08L457.47-46.08Q458.69-46.08 459.55-45.70L459.55-45.70L459.55-45.70Q460.42-45.31 461.25-44.35L461.25-44.35L473.66-30.14L473.66-43.78L473.66-43.78Q473.66-44.99 474.21-45.54L474.21-45.54L474.21-45.54Q474.75-46.08 475.97-46.08L475.97-46.08L485.57-46.08L485.57-46.08Q486.78-46.08 487.33-45.54L487.33-45.54L487.33-45.54Q487.87-44.99 487.87-43.78L487.87-43.78L487.87-2.30L487.87-2.30Q487.87-1.09 487.33-0.54L487.33-0.54L487.33-0.54Q486.78 0 485.57 0L485.57 0L475.97 0L475.97 0Q474.75 0 474.21-0.54L474.21-0.54L474.21-0.54Q473.66-1.09 473.66-2.30L473.66-2.30L473.66-10.18L462.72-23.42L462.72-2.30L462.72-2.30Q462.72-1.09 462.18-0.54L462.18-0.54L462.18-0.54Q461.63 0 460.42 0Z" fill="#ffd5af"></path></g></g><style>text {
  font-size: 64px;
  font-family: Arial Black;
  dominant-baseline: central;
  text-anchor: middle;
}</style></svg>